<?xml version="1.0" encoding="UTF-8" standalone="no"?>
<!-- Created with Inkscape (http://www.inkscape.org/) -->

<svg
   xmlns:dc="http://purl.org/dc/elements/1.1/"
   xmlns:cc="http://creativecommons.org/ns#"
   xmlns:rdf="http://www.w3.org/1999/02/22-rdf-syntax-ns#"
   xmlns:svg="http://www.w3.org/2000/svg"
   xmlns="http://www.w3.org/2000/svg"
   xmlns:sodipodi="http://sodipodi.sourceforge.net/DTD/sodipodi-0.dtd"
   xmlns:inkscape="http://www.inkscape.org/namespaces/inkscape"
   width="789.76074"
   height="522.91431"
   id="svg2"
   version="1.1"
   inkscape:version="0.48.4 r9939"
   sodipodi:docname="ok.svg">
  <defs
     id="defs4" />
  <sodipodi:namedview
     id="base"
     pagecolor="#ffffff"
     bordercolor="#666666"
     borderopacity="1.0"
     inkscape:pageopacity="0.0"
     inkscape:pageshadow="2"
     inkscape:zoom="0.35"
     inkscape:cx="-90.685714"
     inkscape:cy="231.45715"
     inkscape:document-units="px"
     inkscape:current-layer="layer1"
     showgrid="false"
     fit-margin-top="0"
     fit-margin-left="0"
     fit-margin-right="0"
     fit-margin-bottom="0"
     inkscape:window-width="1920"
     inkscape:window-height="1018"
     inkscape:window-x="1016"
     inkscape:window-y="80"
     inkscape:window-maximized="1" />
  <metadata
     id="metadata7">
    <rdf:RDF>
      <cc:Work
         rdf:about="">
        <dc:format>image/svg+xml</dc:format>
        <dc:type
           rdf:resource="http://purl.org/dc/dcmitype/StillImage" />
        <dc:title></dc:title>
      </cc:Work>
    </rdf:RDF>
  </metadata>
  <g
     inkscape:label="Layer 1"
     inkscape:groupmode="layer"
     id="layer1"
     transform="translate(-19.971428,-240.90504)">
    <path
       style="fill:none;stroke:#000000;stroke-width:17.20000076;stroke-miterlimit:4"
       d="m 28.571428,249.50504 505.714292,0 0,505.71429 -505.714292,0 z"
       id="rect2985" />
    <g
       transform="scale(1.032479,0.96854272)"
       style="font-size:141.44419861px;font-style:normal;font-weight:normal;line-height:125%;letter-spacing:0px;word-spacing:0px;fill:#000000;fill-opacity:1;stroke:none;font-family:Sans"
       id="text3755">
      <path
         d="m 135.8822,351.06671 13.39852,3.38416 c -2.80872,11.00431 -7.86194,19.39564 -15.15967,25.17403 -7.2979,5.7784 -16.21872,8.6676 -26.76251,8.6676 -10.912246,0 -19.787032,-2.22157 -26.624387,-6.66473 -6.837412,-4.44314 -12.04027,-10.87765 -15.608589,-19.30354 -3.568344,-8.42584 -5.352509,-17.47329 -5.352502,-27.14237 -7e-6,-10.54379 2.014373,-19.74088 6.043148,-27.59129 4.028748,-7.85025 9.7611,-13.81281 17.197073,-17.88771 7.435912,-4.07471 15.620053,-6.11211 24.552447,-6.11222 10.1294,1.1e-4 18.64736,2.57851 25.55388,7.73523 6.90637,5.15691 11.71786,12.40868 14.43449,21.75534 l -13.19132,3.1079 c -2.34828,-7.36681 -5.75546,-12.73081 -10.22156,-16.09204 -4.46624,-3.36105 -10.08348,-5.04162 -16.85175,-5.04171 -7.781317,9e-5 -14.284889,1.86483 -19.510733,5.59423 -5.225914,3.72957 -8.897843,8.73674 -11.015796,15.02154 -2.118002,6.28494 -3.17699,12.76549 -3.176969,19.44167 -2.1e-5,8.61009 1.25465,16.12661 3.764018,22.54957 2.509318,6.42303 6.411461,11.22301 11.706441,14.39996 5.294907,3.17698 11.027259,4.76547 17.197069,4.76546 7.50496,1e-5 13.85889,-2.16401 19.06182,-6.49207 5.20278,-4.32803 8.72507,-10.75102 10.56688,-19.26901 z"
         style=""
         id="path3776" />
      <path
         d="m 161.29795,354.03648 12.63881,-1.10503 c 0.59854,5.06476 1.99134,9.22014 4.1784,12.46615 2.18702,3.24605 5.58269,5.8705 10.18703,7.87336 4.60426,2.00288 9.7841,3.00432 15.53952,3.00431 5.11072,1e-5 9.62293,-0.7597 13.53665,-2.27913 3.91359,-1.51941 6.82581,-3.60285 8.73667,-6.25034 1.91071,-2.64746 2.8661,-5.53665 2.86618,-8.6676 -8e-5,-3.17694 -0.92094,-5.95103 -2.76259,-8.32228 -1.84179,-2.37118 -4.88062,-4.36254 -9.11652,-5.97409 -2.7166,-1.05894 -8.72521,-2.70498 -18.02584,-4.93811 -9.30073,-2.23304 -15.81581,-4.33951 -19.54527,-6.31941 -4.83454,-2.53231 -8.4374,-5.67474 -10.8086,-9.42731 -2.37123,-3.75244 -3.55684,-7.95386 -3.55683,-12.60428 -1e-5,-5.1107 1.45035,-9.88765 4.35107,-14.33089 2.90069,-4.44306 7.13665,-7.81571 12.70788,-10.11796 5.57117,-2.30205 11.76395,-3.45312 18.57836,-3.45323 7.50496,1.1e-4 14.12364,1.20873 19.85606,3.62589 5.73228,2.41736 10.1409,5.97418 13.22586,10.67048 3.0848,4.69647 4.74235,10.01443 4.97265,15.95391 l -12.84601,0.9669 c -0.69072,-6.3999 -3.0274,-11.23442 -7.01005,-14.50356 -3.98278,-3.26896 -9.86478,-4.90349 -17.64599,-4.90358 -8.10362,9e-5 -14.00863,1.48498 -17.71506,4.45466 -3.70649,2.96986 -5.55972,6.54971 -5.5597,10.73954 -2e-5,3.63747 1.3122,6.63027 3.93668,8.97839 2.57838,2.34826 9.31217,4.75401 20.20138,7.21725 10.88912,2.46336 18.3596,4.61587 22.41145,6.45753 5.89343,2.71659 10.24449,6.15831 13.0532,10.32516 2.80854,4.16693 4.21285,8.96691 4.21294,14.39995 -9e-5,5.38706 -1.54253,10.4633 -4.62733,15.22874 -3.08496,4.76546 -7.5166,8.47192 -13.29492,11.11939 -5.77847,2.64747 -12.28204,3.97121 -19.51074,3.97121 -9.1626,0 -16.84027,-1.33525 -23.03303,-4.00574 -6.19281,-2.67049 -11.05034,-6.68774 -14.57262,-12.05177 -3.5223,-5.36399 -5.37553,-11.43015 -5.55969,-18.19851 z"
         style=""
         id="path3778" />
      <path
         d="m 255.77825,354.03648 12.63881,-1.10503 c 0.59854,5.06476 1.99134,9.22014 4.17841,12.46615 2.18701,3.24605 5.58268,5.8705 10.18702,7.87336 4.60426,2.00288 9.7841,3.00432 15.53952,3.00431 5.11072,1e-5 9.62294,-0.7597 13.53665,-2.27913 3.91359,-1.51941 6.82581,-3.60285 8.73667,-6.25034 1.91071,-2.64746 2.8661,-5.53665 2.86618,-8.6676 -8e-5,-3.17694 -0.92094,-5.95103 -2.76259,-8.32228 -1.84179,-2.37118 -4.88062,-4.36254 -9.11652,-5.97409 -2.71659,-1.05894 -8.7252,-2.70498 -18.02584,-4.93811 -9.30073,-2.23304 -15.81581,-4.33951 -19.54527,-6.31941 -4.83454,-2.53231 -8.4374,-5.67474 -10.8086,-9.42731 -2.37123,-3.75244 -3.55684,-7.95386 -3.55683,-12.60428 -1e-5,-5.1107 1.45035,-9.88765 4.35107,-14.33089 2.90069,-4.44306 7.13665,-7.81571 12.70788,-10.11796 5.57117,-2.30205 11.76395,-3.45312 18.57836,-3.45323 7.50496,1.1e-4 14.12364,1.20873 19.85606,3.62589 5.73228,2.41736 10.1409,5.97418 13.22586,10.67048 3.0848,4.69647 4.74235,10.01443 4.97265,15.95391 l -12.84601,0.9669 c -0.69072,-6.3999 -3.0274,-11.23442 -7.01005,-14.50356 -3.98278,-3.26896 -9.86478,-4.90349 -17.64599,-4.90358 -8.10362,9e-5 -14.00863,1.48498 -17.71506,4.45466 -3.70649,2.96986 -5.55972,6.54971 -5.5597,10.73954 -2e-5,3.63747 1.31221,6.63027 3.93668,8.97839 2.57838,2.34826 9.31217,4.75401 20.20138,7.21725 10.88912,2.46336 18.3596,4.61587 22.41145,6.45753 5.89343,2.71659 10.24449,6.15831 13.0532,10.32516 2.80854,4.16693 4.21285,8.96691 4.21294,14.39995 -9e-5,5.38706 -1.54253,10.4633 -4.62733,15.22874 -3.08496,4.76546 -7.5166,8.47192 -13.29492,11.11939 -5.77847,2.64747 -12.28204,3.97121 -19.51074,3.97121 -9.1626,0 -16.84027,-1.33525 -23.03303,-4.00574 -6.1928,-2.67049 -11.05034,-6.68774 -14.57262,-12.05177 -3.5223,-5.36399 -5.37553,-11.43015 -5.55969,-18.19851 z"
         style=""
         id="path3780" />
      <path
         d="m 65.919807,563.37114 0,-101.24863 13.398522,0 0,101.24863 z"
         style=""
         id="path3782" />
      <path
         d="m 98.31108,530.84173 12.63881,-1.10503 c 0.59854,5.06476 1.99134,9.22014 4.17841,12.46615 2.18702,3.24605 5.58269,5.8705 10.18702,7.87336 4.60426,2.00288 9.7841,3.00432 15.53952,3.00431 5.11073,10e-6 9.62294,-0.7597 13.53666,-2.27913 3.91359,-1.51941 6.82581,-3.60285 8.73666,-6.25034 1.91071,-2.64746 2.86611,-5.53665 2.86618,-8.66761 -7e-5,-3.17693 -0.92093,-5.95102 -2.76258,-8.32227 -1.84179,-2.37118 -4.88063,-4.36254 -9.11652,-5.97409 -2.7166,-1.05894 -8.72521,-2.70498 -18.02585,-4.93811 -9.30073,-2.23304 -15.81581,-4.33951 -19.54527,-6.31941 -4.83454,-2.53231 -8.4374,-5.67474 -10.8086,-9.42731 -2.37123,-3.75244 -3.55683,-7.95386 -3.55682,-12.60428 -1e-5,-5.1107 1.45034,-9.88766 4.35106,-14.33089 2.9007,-4.44306 7.13665,-7.81571 12.70788,-10.11796 5.57117,-2.30205 11.76396,-3.45313 18.57836,-3.45323 7.50496,10e-5 14.12364,1.20873 19.85606,3.62589 5.73229,2.41736 10.1409,5.97418 13.22586,10.67047 3.0848,4.69648 4.74235,10.01444 4.97265,15.95391 l -12.84601,0.96691 c -0.69071,-6.39991 -3.02739,-11.23442 -7.01005,-14.50356 -3.98278,-3.26896 -9.86477,-4.90349 -17.64599,-4.90358 -8.10361,9e-5 -14.00863,1.48498 -17.71506,4.45466 -3.70649,2.96986 -5.55972,6.5497 -5.55969,10.73954 -3e-5,3.63747 1.3122,6.63027 3.93668,8.97839 2.57838,2.34826 9.31216,4.75401 20.20138,7.21725 10.88912,2.46336 18.35959,4.61587 22.41144,6.45753 5.89344,2.71659 10.2445,6.15831 13.0532,10.32515 2.80854,4.16694 4.21285,8.96692 4.21294,14.39996 -9e-5,5.38706 -1.54253,10.4633 -4.62732,15.22874 -3.08497,4.76546 -7.5166,8.47192 -13.29493,11.11939 -5.77846,2.64747 -12.28204,3.97121 -19.51074,3.97121 -9.1626,0 -16.84027,-1.33525 -23.03302,-4.00574 -6.19281,-2.6705 -11.05035,-6.68775 -14.57262,-12.05177 -3.5223,-5.36399 -5.375534,-11.43016 -5.5597,-18.19851 z"
         style=""
         id="path3784" />
      <path
         d="m 52.521284,740.17638 38.883342,-101.24863 14.434494,0 41.43873,101.24863 -15.26327,0 -11.81004,-30.66466 -42.336566,0 -11.119393,30.66466 z m 29.214305,-41.57686 34.325081,0 -10.56688,-28.0402 c -3.22306,-8.51789 -5.617293,-15.51642 -7.182709,-20.99563 -1.28925,6.49216 -3.107948,12.93817 -5.4561,19.33808 z"
         style=""
         id="path3786" />
      <path
         d="m 175.8015,740.17638 -26.86611,-101.24863 13.74385,0 15.40139,66.37104 c 1.65752,6.95252 3.08485,13.85897 4.282,20.71936 2.57838,-10.82009 4.0978,-17.05891 4.55826,-18.71649 l 19.26901,-68.37391 16.16111,0 14.50355,51.2459 c 3.63731,12.70791 6.26176,24.65607 7.87336,35.8445 1.28911,-6.39996 2.96968,-13.74382 5.04172,-22.03159 l 15.88484,-65.05881 13.46759,0 -27.76395,101.24863 -12.91507,0 -21.34095,-77.1451 c -1.79574,-6.44594 -2.85473,-10.40564 -3.17697,-11.8791 -1.05905,4.65043 -2.04898,8.61013 -2.96977,11.8791 l -21.47908,77.1451 z"
         style=""
         id="path3788" />
      <path
         d="m 291.82994,740.17638 0,-101.24863 73.20843,0 0,11.94817 -59.8099,0 0,31.00998 56.01135,0 0,11.87911 -56.01135,0 0,34.46321 62.15809,0 0,11.94816 z"
         style=""
         id="path3790" />
      <path
         d="m 381.47573,707.64698 12.63881,-1.10503 c 0.59854,5.06476 1.99134,9.22014 4.1784,12.46615 2.18702,3.24605 5.58269,5.8705 10.18703,7.87336 4.60426,2.00288 9.7841,3.00432 15.53952,3.00431 5.11072,10e-6 9.62293,-0.7597 13.53665,-2.27913 3.91359,-1.51941 6.82581,-3.60286 8.73667,-6.25035 1.91071,-2.64745 2.8661,-5.53665 2.86618,-8.6676 -8e-5,-3.17694 -0.92094,-5.95103 -2.76259,-8.32228 -1.84179,-2.37117 -4.88062,-4.36253 -9.11652,-5.97408 -2.7166,-1.05895 -8.72521,-2.70498 -18.02584,-4.93811 -9.30073,-2.23304 -15.81581,-4.33951 -19.54527,-6.31941 -4.83454,-2.53231 -8.4374,-5.67475 -10.8086,-9.42731 -2.37123,-3.75244 -3.55684,-7.95387 -3.55683,-12.60428 -1e-5,-5.1107 1.45035,-9.88766 4.35107,-14.3309 2.90069,-4.44306 7.13665,-7.8157 12.70788,-10.11795 5.57117,-2.30205 11.76395,-3.45313 18.57836,-3.45323 7.50496,10e-5 14.12364,1.20873 19.85606,3.62589 5.73228,2.41735 10.1409,5.97418 13.22586,10.67047 3.0848,4.69648 4.74235,10.01444 4.97265,15.95391 l -12.84601,0.96691 c -0.69072,-6.39991 -3.0274,-11.23442 -7.01005,-14.50356 -3.98278,-3.26896 -9.86478,-4.90349 -17.64599,-4.90358 -8.10362,9e-5 -14.00863,1.48498 -17.71506,4.45466 -3.70649,2.96986 -5.55972,6.5497 -5.5597,10.73954 -2e-5,3.63747 1.3122,6.63027 3.93668,8.97839 2.57838,2.34826 9.31217,4.75401 20.20138,7.21725 10.88912,2.46336 18.3596,4.61587 22.41145,6.45753 5.89343,2.71659 10.24449,6.1583 13.0532,10.32515 2.80854,4.16693 4.21285,8.96692 4.21294,14.39996 -9e-5,5.38706 -1.54253,10.4633 -4.62733,15.22873 -3.08496,4.76547 -7.5166,8.47193 -13.29492,11.1194 -5.77847,2.64747 -12.28204,3.97121 -19.51074,3.97121 -9.1626,0 -16.84027,-1.33525 -23.03303,-4.00575 -6.19281,-2.67049 -11.05034,-6.68774 -14.57262,-12.05176 -3.5223,-5.36399 -5.37553,-11.43016 -5.55969,-18.19851 z"
         style=""
         id="path3792" />
      <path
         d="m 476.43946,690.8643 c 0,-16.80565 4.51221,-29.96243 13.53666,-39.4704 9.0244,-9.50778 20.67328,-14.26172 34.94666,-14.26182 9.34667,10e-5 17.77254,2.23318 25.27762,6.69926 7.50493,4.46626 13.22577,10.69358 17.16254,18.68196 3.93658,7.98853 5.90492,17.04749 5.90502,27.1769 -10e-5,10.26763 -2.07203,19.45321 -6.21581,27.55675 -4.14396,8.10359 -10.01444,14.23882 -17.61146,18.40571 -7.59717,4.16689 -15.79282,6.25034 -24.58698,6.25034 -9.53095,0 -18.0489,-2.30215 -25.55388,-6.90646 -7.50504,-4.60429 -13.19135,-10.88916 -17.05894,-18.85462 -3.86763,-7.96541 -5.80143,-16.39128 -5.80143,-25.27762 z m 13.81291,0.20719 c -2e-5,12.20144 3.28055,21.81291 9.8417,28.83445 6.5611,7.02157 14.79128,10.53235 24.69058,10.53234 10.08336,1e-5 18.38261,-3.5453 24.89777,-10.63594 6.515,-7.0906 9.77254,-17.15099 9.77263,-30.18121 -9e-5,-8.24164 -1.39289,-15.43586 -4.1784,-21.58267 -2.78569,-6.14667 -6.86049,-10.91211 -12.22443,-14.29636 -5.36408,-3.38407 -11.3842,-5.07615 -18.06038,-5.07624 -9.48491,9e-5 -17.64603,3.25763 -24.48338,9.77263 -6.83741,6.51516 -10.25611,17.39282 -10.25609,32.633 z"
         style=""
         id="path3794" />
      <path
         d="m 590.05069,740.17638 0,-101.24863 20.16685,0 23.9654,71.68901 c 2.21001,6.67626 3.82151,11.67192 4.83452,14.987 1.15101,-3.68342 2.94669,-9.09347 5.38703,-16.23017 l 24.24166,-70.44584 18.02585,0 0,101.24863 -12.91507,0 0,-84.7422 -29.4215,84.7422 -12.0863,0 -29.28337,-86.19255 0,86.19255 z"
         style=""
         id="path3796" />
      <path
         d="m 708.70356,740.17638 0,-101.24863 73.20842,0 0,11.94817 -59.8099,0 0,31.00998 56.01135,0 0,11.87911 -56.01135,0 0,34.46321 62.15809,0 0,11.94816 z"
         style=""
         id="path3798" />
    </g>
  </g>
</svg>
